

[IMG]http://img801.imageshack.us/img801/3244/39049141.png[/IMG]


General
Complete name                    :James Bond From Russia With Love {1963}DvDrip{Dual audio}[Eng Hindi]Current_HD
Format                           : AVI
Format/Info                      : Audio Video Interleave
Format profile                   : OpenDML
File size                        : 729 MiB
Duration                         : 1h 50mn
Overall bit rate                 : 923 Kbps
Writing application              : AVI-Mux GUI 1.17.8.3, Feb 16 201019:42:50

[IMG]http://img37.imageshack.us/img37/7218/vlcfile.png[/IMG]
Video
ID                               : 0
Format                           : MPEG-4 Visual
Format profile                   : Advanced Simple@L5
Format settings, BVOP            : Yes
Format settings, QPel            : No
Format settings, GMC             : No warppoints
Format settings, Matrix          : Custom
Codec ID                         : XVID
Codec ID/Hint                    : XviD
Duration                         : 1h 50mn
Bit rate                         : 681 Kbps
Width                            : 528 pixels
Height                           : 304 pixels
Display aspect ratio             : 16:9
Frame rate                       : 25.000 fps
Color space                      : YUV
Chroma subsampling               : 4:2:0
Bit depth                        : 8 bits
Scan type                        : Progressive
Bits/(Pixel*Frame)               : 0.170
Stream size                      : 538 MiB (74%)
Writing library                  : XviD 1.2.0.dev47 (UTC 2006-11-01)

[IMG]http://img248.imageshack.us/img248/6613/musicfile1.png[/IMG]
Audio #1
ID                               : 1
Format                           : MPEG Audio
Format version                   : Version 1
Format profile                   : Layer 3
Mode                             : Joint stereo
Mode extension                   : MS Stereo
Codec ID                         : 55
Codec ID/Hint                    : MP3
Duration                         : 1h 50mn
Bit rate mode                    : Constant
Bit rate                         : 112 Kbps
Channel(s)                       : 2 channels
Sampling rate                    : 48.0 KHz
Stream size                      : 88.4 MiB (12%)
Alignment                        : Aligned on interleaves
Interleave, duration             : 868 ms (21.69 video frames)
Interleave, preload duration     : 216 ms
Title                            : English
Writing library                  : LAME3.97

[IMG]http://img248.imageshack.us/img248/6613/musicfile1.png[/IMG]
Audio #2
ID                               : 2
Format                           : MPEG Audio
Format version                   : Version 1
Format profile                   : Layer 3
Mode                             : Joint stereo
Mode extension                   : MS Stereo
Codec ID                         : 55
Codec ID/Hint                    : MP3
Duration                         : 1h 49mn
Bit rate mode                    : Constant
Bit rate                         : 128 Kbps
Channel(s)                       : 2 channels
Sampling rate                    : 48.0 KHz
Stream size                      : 100 MiB (14%)
Alignment                        : Aligned on interleaves
Interleave, duration             : 880 ms (21.99 video frames)
Interleave, preload duration     : 216 ms
Title                            : CurrentHD
Writing library                  : LAME3.97

[IMG]http://img99.imageshack.us/img99/2379/67869504.jpg[/IMG]
[IMG]http://img59.imageshack.us/img59/8472/33864360.jpg[/IMG]
[IMG]http://img375.imageshack.us/img375/1505/46643032.jpg[/IMG]
[IMG]http://img832.imageshack.us/img832/269/57735614.jpg[/IMG]
[IMG]http://img508.imageshack.us/img508/2828/20284833.jpg[/IMG]
[IMG]http://img137.imageshack.us/img137/9456/91580048.jpg[/IMG]

Sample Included in the Torrent